<svg width="156" height="49" viewBox="0 0 156 49" fill="none" xmlns="http://www.w3.org/2000/svg">
<circle cx="27" cy="9" r="9" fill="#FF8A00"/>
<circle cx="6.3" cy="26.1" r="6.3" fill="#FF8A00"/>
<circle cx="17.9996" cy="43.2001" r="5.4" fill="#FF8A00"/>
<path d="M65.0909 28.9637C65.0909 31.4713 64.6212 33.619 63.6818 35.4069C62.75 37.1872 61.4773 38.5509 59.8636 39.4978C58.2576 40.4448 56.4356 40.9183 54.3977 40.9183C52.3598 40.9183 50.5341 40.4448 48.9205 39.4978C47.3144 38.5433 46.0417 37.1759 45.1023 35.3956C44.1705 33.6077 43.7045 31.4637 43.7045 28.9637C43.7045 26.4562 44.1705 24.3122 45.1023 22.5319C46.0417 20.744 47.3144 19.3766 48.9205 18.4296C50.5341 17.4827 52.3598 17.0092 54.3977 17.0092C56.4356 17.0092 58.2576 17.4827 59.8636 18.4296C61.4773 19.3766 62.75 20.744 63.6818 22.5319C64.6212 24.3122 65.0909 26.4562 65.0909 28.9637ZM60.8523 28.9637C60.8523 27.1986 60.5758 25.7099 60.0227 24.4978C59.4773 23.2781 58.7197 22.3577 57.75 21.7365C56.7803 21.1077 55.6629 20.7933 54.3977 20.7933C53.1326 20.7933 52.0152 21.1077 51.0455 21.7365C50.0758 22.3577 49.3144 23.2781 48.7614 24.4978C48.2159 25.7099 47.9432 27.1986 47.9432 28.9637C47.9432 30.7289 48.2159 32.2213 48.7614 33.441C49.3144 34.6531 50.0758 35.5736 51.0455 36.2024C52.0152 36.8236 53.1326 37.1342 54.3977 37.1342C55.6629 37.1342 56.7803 36.8236 57.75 36.2024C58.7197 35.5736 59.4773 34.6531 60.0227 33.441C60.5758 32.2213 60.8523 30.7289 60.8523 28.9637ZM82.6903 27.7592L78.9403 28.1683C78.8343 27.7895 78.6487 27.4334 78.3835 27.1001C78.1259 26.7668 77.7775 26.4978 77.3381 26.2933C76.8987 26.0887 76.3608 25.9865 75.7244 25.9865C74.8684 25.9865 74.1487 26.1721 73.5653 26.5433C72.9896 26.9145 72.7055 27.3956 72.7131 27.9865C72.7055 28.494 72.8911 28.9069 73.2699 29.2251C73.6563 29.5433 74.2926 29.8046 75.179 30.0092L78.1562 30.6456C79.8078 31.0016 81.035 31.566 81.8381 32.3387C82.6487 33.1115 83.0578 34.1228 83.0653 35.3728C83.0578 36.4713 82.7358 37.441 82.0994 38.2819C81.4706 39.1152 80.5956 39.7668 79.4744 40.2365C78.3532 40.7062 77.0653 40.941 75.6108 40.941C73.4744 40.941 71.7547 40.494 70.4517 39.6001C69.1487 38.6986 68.3722 37.4448 68.1222 35.8387L72.1335 35.4524C72.3153 36.2402 72.7017 36.8349 73.2926 37.2365C73.8835 37.638 74.6525 37.8387 75.5994 37.8387C76.5767 37.8387 77.3608 37.638 77.9517 37.2365C78.5502 36.8349 78.8494 36.3387 78.8494 35.7478C78.8494 35.2478 78.6563 34.8349 78.2699 34.5092C77.8911 34.1834 77.3002 33.9334 76.4972 33.7592L73.5199 33.1342C71.8456 32.7857 70.607 32.1986 69.804 31.3728C69.0009 30.5395 68.6032 29.4865 68.6108 28.2137C68.6032 27.138 68.8949 26.2062 69.4858 25.4183C70.0843 24.6228 70.9138 24.0092 71.9744 23.5774C73.0426 23.138 74.2737 22.9183 75.6676 22.9183C77.7131 22.9183 79.3229 23.3539 80.4972 24.2251C81.679 25.0963 82.41 26.2743 82.6903 27.7592ZM94.071 40.941C92.3286 40.941 90.8324 40.5584 89.5824 39.7933C88.34 39.0281 87.3816 37.9713 86.7074 36.6228C86.0407 35.2668 85.7074 33.7062 85.7074 31.941C85.7074 30.1683 86.0483 28.6039 86.7301 27.2478C87.4119 25.8842 88.3741 24.8236 89.6165 24.066C90.8665 23.3009 92.3438 22.9183 94.0483 22.9183C95.465 22.9183 96.7188 23.1796 97.8097 23.7024C98.9081 24.2175 99.7831 24.9486 100.435 25.8956C101.086 26.8349 101.457 27.9334 101.548 29.191H97.6165C97.4574 28.3501 97.0786 27.6493 96.4801 27.0887C95.8892 26.5206 95.0975 26.2365 94.1051 26.2365C93.2642 26.2365 92.5256 26.4637 91.8892 26.9183C91.2528 27.3652 90.7566 28.0092 90.4006 28.8501C90.0521 29.691 89.8778 30.6986 89.8778 31.8728C89.8778 33.0622 90.0521 34.0849 90.4006 34.941C90.7491 35.7895 91.2377 36.4448 91.8665 36.9069C92.5028 37.3615 93.2491 37.5887 94.1051 37.5887C94.7112 37.5887 95.2528 37.4751 95.7301 37.2478C96.215 37.013 96.6203 36.6759 96.946 36.2365C97.2718 35.7971 97.4953 35.263 97.6165 34.6342H101.548C101.45 35.869 101.086 36.9637 100.457 37.9183C99.8286 38.8652 98.9725 39.6077 97.8892 40.1456C96.8059 40.6759 95.5331 40.941 94.071 40.941ZM104.926 40.6001V23.1456H108.915V26.0546H109.097C109.415 25.0471 109.96 24.2706 110.733 23.7251C111.513 23.1721 112.403 22.8956 113.403 22.8956C113.631 22.8956 113.884 22.9069 114.165 22.9296C114.453 22.9448 114.691 22.9713 114.881 23.0092V26.7933C114.706 26.7327 114.43 26.6796 114.051 26.6342C113.68 26.5812 113.32 26.5546 112.972 26.5546C112.222 26.5546 111.547 26.7175 110.949 27.0433C110.358 27.3615 109.892 27.8046 109.551 28.3728C109.21 28.941 109.04 29.5963 109.04 30.3387V40.6001H104.926ZM128.722 40.6001H124.222L132.415 17.3274H137.619L145.824 40.6001H141.324L135.108 22.1001H134.926L128.722 40.6001ZM128.869 31.4751H141.142V34.8615H128.869V31.4751ZM153.105 17.3274V40.6001H148.889V17.3274H153.105Z" fill="#535353"/>
</svg>
